<?xml version="1.0" encoding="utf-8"?>
<!-- Generator: Adobe Illustrator 26.1.0, SVG Export Plug-In . SVG Version: 6.00 Build 0)  -->
<svg version="1.1" xmlns="http://www.w3.org/2000/svg" xmlns:xlink="http://www.w3.org/1999/xlink" x="0px" y="0px"
	 viewBox="0 0 500 311.85" style="enable-background:new 0 0 500 311.85;" xml:space="preserve">
<style type="text/css">
	.st0{fill:#88774D;}
	.st1{fill:#FFFFFF;}
</style>
<g id="BACKGROUND">
</g>
<g id="OBJECTS">
	<g>
		<path class="st0" d="M387.62,160.48c-1.79-4.96-4.94-8.91-8.62-12.54c-2.26-2.22-4.8-4.07-7.49-5.71
			c-1.86-1.13-3.76-2.2-5.77-3.04c-2.99-1.25-6.04-2.33-9.28-2.7c-2.13-0.24-4.24-0.3-6.39-0.05c-2.72,0.31-5.16,1.29-7.44,2.72
			c-0.61,0.38-1.04,0.26-1.52-0.08l0,0c-3.86-2.24-7.77-4.42-11.76-6.44c-4.22-2.14-8.55-4.11-12.92-5.97
			c-1.11-0.47-2.23-0.93-3.34-1.39c-0.01-0.01-0.01-0.02-0.02-0.03c-0.25-0.15-0.52-0.43-0.18-0.56c0.7-0.28,0.51-0.52,1.44,0.01
			c5.4,3.07,11.27,3.32,17.22,2.55c4.16-0.54,8.16-1.76,12.04-3.46c6.28-2.75,11.71-6.48,15.33-12.41c1.74-2.85,2.83-5.97,2.66-9.39
			c-0.15-2.89-1.34-5.24-3.81-6.79c-2.21-1.38-4.67-2.07-7.26-2.31c-3.79-0.34-7.49,0.15-11.14,1.14
			c-3.65,0.99-7.04,2.55-10.39,4.29c-2.18,1.14-5.6,3.8-7.37,5.2c-3.3,2.6-5.75,6-7.55,9.82c-1.03,2.18-1.57,4.51-1.55,6.9
			c0.01,1.64-0.01,2.9-1.96,3.5c-0.34,0.1-0.61,0.24-1.18,0.06c-0.1-0.04-0.2-0.08-0.3-0.11c-0.04-0.02-0.08-0.03-0.13-0.06
			c-0.02-0.01-0.07-0.02-0.12-0.04c-2.05-0.79-4.11-1.55-6.19-2.25c-1.73-0.58-5.22-1.62-6.94-2.2c-4.57-1.55-9.26-2.77-13.98-3.86
			c-4.9-1.13-9.81-2.24-14.79-3.03c-2.09-0.33-4.18-0.64-6.28-0.94c1.41-1.29,1.58-1.39,2.38-1.02c2.32,1.06,4.79,1.11,7.25,1.05
			c5.85-0.14,11.33-1.84,16.54-4.34c3.68-1.77,7.25-3.72,10.5-6.33c4.08-3.27,7.75-6.78,10.06-11.52c1.84-3.78,3.22-7.71,2.71-12.01
			c-0.38-3.19-1.91-5.66-4.98-7c-2.08-0.91-4.2-1.28-6.5-1.31c-5.3-0.08-10.23,1.31-14.94,3.45c-4.4,2-8.54,4.45-12.32,7.57
			c-4.06,3.35-7.72,6.97-10.27,11.61c-2.89,5.26-3.69,10.64-0.89,16.22c0.12,0.23,0.25,0.54,0.2,0.77
			c-0.23,0.94-1.88,2.06-3.22,2.41c-4.02-0.5-8.04-0.88-12.08-1.07c-4.53-0.21-13.6-0.41-18.13-0.4c-2.98,0.01-5.97,0.16-8.94,0.39
			c-0.13,0.01-0.26,0.02-0.39,0.03c0.01-0.01,0.02-0.02,0.03-0.03c-0.26,0.03-0.52,0.06-0.79,0.08c-0.39,0.04-1.05,0.1-0.91-0.58
			c0.23-1.14,0.17-2.33,0.7-3.41c0.41-0.83,0.86-1.15,1.93-0.96c2.8,0.5,5.57,0.3,8.27-0.79c2.8-1.14,5.27-2.71,7.71-4.49
			c3.64-2.66,6.7-5.87,9.55-9.27c3.09-3.7,5.95-7.62,8.16-11.93c2.45-4.77,4.23-9.69,3.51-15.26c-0.87-6.72-5.93-9.96-12.1-9.34
			c-5.7,0.57-10.77,3.09-15.2,6.7c-5.81,4.73-10.48,10.41-13.84,17.15c-2.45,4.91-4.27,9.92-3.74,15.55
			c0.31,3.27,1.22,6.24,3.43,8.75c0.65,0.74,0.86,1.53,0.34,2.52c-0.74,1.43-1.12,3.02-1.13,4.61c0,0.7-0.2,0.98-0.61,1.12
			c-4.03,0.41-8.04,0.92-12.06,1.44c-4.96,0.64-9.83,1.67-14.7,2.71c-3.25,0.69-3.48,0.79-6.69,1.62c-0.47,0.12-1.04,0.28-1.03-0.35
			c0.12-0.79,0.85-1.65,1.63-1.78c4.53-0.75,8.08-3.22,10.95-6.61c5.18-6.12,7.62-13.52,9.12-21.23c0.99-5.08,1.61-10.24,1.18-15.45
			c-0.26-3.16-0.79-6.25-2.71-8.89c-1.33-1.84-3.19-2.86-5.47-2.8c-2.95,0.07-5.64,1.2-7.91,2.95c-4.02,3.08-7.74,6.46-10.44,10.9
			c-2.14,3.53-3.9,7.16-4.99,11.16c-1.82,6.69-2.41,13.41-1.05,20.23c0.84,4.21,2.37,7.98,6.79,9.71c0.38,0.15,1,0.36,0.72,0.89
			c-0.26,0.49-0.32,1.01-0.36,1.53l0,0c0.08,0.9-3.92,1.78-4.88,2.08c-3.21,0.99-6.39,2.07-9.54,3.21
			c-6.82,2.46-13.53,5.19-19.92,8.43c-0.37,0.19-0.72,0.59-1.13,0.33c-0.16-0.1-0.18-0.19-0.16-0.32c0-0.01,0-0.01,0-0.02
			c0-0.03,0.01-0.06,0.02-0.09c0.19-1.06,1.2-2.69,1.95-2.81c4.16-0.66,7.41-2.88,10.03-5.93c4.74-5.5,6.96-12.17,8.31-19.11
			c0.89-4.57,1.45-9.22,1.04-13.92c-0.25-2.85-0.74-5.63-2.51-8.02c-1.23-1.66-2.93-2.58-5.02-2.54c-2.71,0.06-5.17,1.07-7.25,2.64
			c-3.68,2.77-7.09,5.8-9.55,9.8c-1.96,3.18-3.56,6.44-4.55,10.04c-1.66,6.02-2.18,12.08-0.91,18.23c0.78,3.79,2.19,7.2,6.26,8.77
			c0.35,0.14,0.92,0.33,0.66,0.8c-0.43,0.78-0.45,1.6-0.5,2.44c0.01,0.46-0.64,1.54-1.12,1.8c-3.32,1.79-6.6,3.65-9.83,5.56
			c-3.09,1.82-6.19,3.64-9.14,5.64c-4.83,3.27-9.44,6.78-14.02,10.33c-2.67,2.07-2.67,2.03-1.59,4.36c0.35,0.76,0.63,0.85,1.53,0.13
			c3.47-2.75,6.9-5.54,10.55-8.1c7.92-5.28,14.93-9.59,23.21-14.27c0.96-0.52,1.46,0.05,1.77,1.3c-0.05,0.61-0.16,1.06-0.77,1.32
			c-2.45,1.04-3.9,2.75-5.38,4.78c-2.86,3.93-3.59,8.42-3.45,13.14c0.13,4.58,1.23,9.01,2.72,13.37c1.39,4.07,3.23,7.96,5.54,11.68
			c1.87,3,3.98,5.79,7.03,7.82c3.53,2.35,7.54,2.08,10.4-0.83c2.77-2.83,4.05-6.45,4.87-10.22c0.78-3.59,0.86-7.22,0.49-10.89
			c-0.25-2.52-0.59-5.04-1.28-7.49c-1.16-4.12-2.61-8.13-4.88-11.92c-1.36-2.26-3.05-4.19-4.96-5.98c-2.12-1.98-4.66-3.34-7.53-4.08
			c-0.6-0.16-0.6-0.56-0.65-0.96l0,0c-0.01-0.07-0.02-0.13-0.04-0.2c0,0,0-0.01,0-0.01l0,0c-0.22-0.89-0.94-1.99,0.24-2.72
			c3.16-1.95,8.64-4.19,12.09-5.68c6.32-2.72,12.93-4.93,19.55-7.01c1.09-0.34,1.36-0.76,2.23-0.13c0.04,0.1,0.08,0.2,0.13,0.31
			c0.26,0.66,0.17,1.08-0.47,1.44c-2.57,1.45-4.29,3.71-5.73,6.19c-2.8,4.81-3.25,10.04-2.75,15.45c0.49,5.25,2.01,10.23,3.95,15.09
			c1.81,4.54,4.1,8.82,6.88,12.86c2.25,3.26,4.75,6.25,8.2,8.27c4,2.34,8.33,1.62,11.19-2.01c2.79-3.53,3.9-7.82,4.5-12.24
			c0.57-4.21,0.38-8.39-0.29-12.57c-0.46-2.87-1.02-5.74-1.95-8.48c-1.56-4.62-3.44-9.08-6.18-13.2c-1.64-2.47-3.62-4.5-5.82-6.36
			c-2.45-2.06-5.3-3.37-8.46-3.92c-0.79-0.14-0.65-0.71-0.73-1.21c-0.01-0.05-0.01-0.08-0.01-0.13l0,0
			c0.21-0.88,2.25-1.21,2.92-1.43c4.82-1.63,9.96-2.35,14.99-3.32c5.54-1.12,11.28-1.99,17.02-2.53c0.03,0.01,0.06,0.03,0.08,0.03
			c0.99,0.11,1.15,0.03,1.36,0.67c0.37,1.1-0.26,1.85-1.13,2.43c-1.63,1.09-2.69,2.64-3.51,4.36c-1.64,3.47-2.24,7.12-2.29,10.98
			c-0.05,4.41,0.58,8.7,1.56,12.93c1.03,4.47,2.51,8.83,4.32,13.07c1.78,4.15,3.75,8.18,6.66,11.67c2.85,3.42,6.01,6.4,10.51,7.61
			c3.49,0.94,6.41,0.13,8.88-2.41c3.62-3.73,4.27-8.53,4.35-13.34c0.08-4.93-0.7-9.84-1.84-14.65c-1.69-7.07-3.89-13.97-7.91-20.12
			c-2.13-3.26-4.6-6.24-8.02-8.26c-2.35-1.39-4.73-2.63-7.57-2.7c-1.03-0.03-1.6-0.93-1.52-1.82c0.05-0.54,0.48-0.74,0.94-0.81
			c0.24-0.01,0.48-0.03,0.72-0.04c0.08,0,0.16,0.01,0.23,0.01c0.01,0,0.02-0.02,0.04-0.02c1.62-0.08,3.23-0.14,4.82-0.16
			c3.75-0.04,11.25-0.03,15-0.03c5.75-0.01,11.62,0.39,17.39,1.05c1.28,0.34,1.35,0.74,1.72,2.72c0.06,0.34,0.08,0.73,0.25,1.02
			c0.56,0.95,0.13,1.48-0.61,2.09c-1.9,1.56-3.17,3.58-4.01,5.87c-2.04,5.53-1.61,11.16-0.39,16.73c1.63,7.43,4.58,14.35,8.6,20.86
			c3.34,5.4,7.27,10.17,12.53,13.77c3.2,2.19,6.56,4,10.6,4.18c1.86,0.09,3.52-0.47,4.94-1.47c2.65-1.87,3.78-4.73,4.37-7.81
			c0.93-4.9,0.42-9.75-0.58-14.58c-0.87-4.22-2.39-8.22-4.2-12.12c-1.93-4.15-4.11-8.19-6.98-11.73c-3.56-4.38-8.81-9.04-13.1-12.06
			c-2.37-1.66-5.21-2.51-8.12-2.9c-0.47-0.06-0.7-0.3-0.81-0.73c-0.25-1.01-0.36-1.47-0.72-2.92c-0.03-0.31,0.16-0.41,0.39-0.42
			c0.7,0.09,1.4,0.19,2.09,0.29c7.44,1.01,14.81,2.5,22.1,4.29c4.24,1.04,8.43,2.29,12.59,3.62c1.49,0.48,4.46,1.44,5.94,1.95
			c2.12,0.72,4.22,1.5,6.32,2.3c0.28,0.15,0.48,0.37,0.44,0.71c-0.09,0.73,0.52,1.55-0.21,1.91c-1.11,0.55-1.95,1.32-2.85,2.11
			c-1.18,1.03-2.03,2.27-2.78,3.6c-1.92,3.41-1.49,7.1-0.98,10.71c0.6,4.21,1.6,8.35,2.89,12.43c1.5,4.76,3.36,9.36,5.83,13.7
			c0.57,1,1.12,2.09,1.87,2.92c1.58,1.74,3.06,3.58,4.89,5.1c2.96,2.47,6.17,4.41,10.07,4.77c2.98,0.27,5.42-0.9,7.12-3.43
			c2.51-3.73,2.54-7.96,2.28-12.19c-0.22-3.49-0.92-6.91-1.82-10.3c-0.72-2.73-1.7-5.37-2.75-7.97c-1.17-2.9-2.63-5.68-4.2-8.39
			c-1.43-2.46-2.93-4.93-4.87-7c-1.98-2.11-4.49-3.62-7.23-4.64c-1.47-0.55-2.95-1.06-4.44-1.54c-0.95-0.31-0.81-0.55-0.75-1.11
			c0.03-0.27,0.33-0.25,0.62-0.18c2.73,1.1,5.45,2.24,8.13,3.45c6.75,2.97,13.48,6.43,19.83,10.23c0.11,0.28,0.06,0.61-0.11,1.09
			c-1.23,3.28-1.31,6.69-0.38,10.02c1.22,4.34,3.82,7.93,7.01,11.03c4.04,3.92,8.61,7.11,13.77,9.5c3.89,1.8,7.82,3.27,12.07,3.85
			c3.86,0.53,7.67,0.78,11.45-0.71c2.75-1.08,4.82-3.74,4.99-6.66C389.19,166.48,388.7,163.46,387.62,160.48z"/>
		<g>
			<path class="st0" d="M159.29,238.27c2.58,3.14,5,6.07,7.55,9.16c-0.53,0.26-0.98,0.6-1.1,0.51c-1.97-1.45-3.27-0.06-4.69,1
				c-11.7,8.79-24.66,10.2-38.15,5.55c-12.8-4.41-19.63-15.87-18.67-29.74c0.84-12.22,10.2-22.62,22.86-25.38
				c11.4-2.48,22.27-0.94,32.59,4.47c1.49,0.78,2.85,1.82,4.29-0.05c0.11-0.14,0.71,0.1,1.36,0.2c-2.15,3.58-4.16,6.93-6.32,10.52
				c-0.48-0.63-0.81-0.88-0.77-1.04c0.69-2.87-1.36-3.97-3.32-5.03c-8.48-4.57-17.46-5.76-26.75-3.32
				c-10.89,2.85-17.29,11.53-17.18,22.67c0.11,10.6,7.38,19.88,18.03,22.5c10.19,2.5,19.54,0.58,27.71-6.22
				c1.5-1.25,3.07-2.47,1.94-4.8C158.63,239.18,158.87,238.94,159.29,238.27z"/>
			<path class="st0" d="M379.36,200.64c4.3,0,8.19,0,12.47,0c-0.4,0.61-0.55,1.18-0.86,1.28c-1.89,0.65-2.04,2.14-2.04,3.8
				c0.01,15.35,0.01,30.71,0,46.06c0,1.72,0.08,3.31,2.1,3.97c0.3,0.1,0.42,0.73,0.73,1.34c-4.21,0-8.09,0-12.46,0
				c0.51-0.7,0.72-1.32,1.1-1.44c1.76-0.57,1.91-1.95,1.91-3.43c0.01-15.57,0-31.14,0.01-46.71c0-1.7-0.34-3.12-2.22-3.68
				C379.87,201.78,379.76,201.32,379.36,200.64z"/>
			<path class="st0" d="M84.79,241.48c0.69,0.01,1.69,0.69,2.01,1.33c1.55,3.05,2.91,6.2,4.35,9.3c0.77,1.64,1.28,3.15-1.21,3.78
				c-0.27,0.07-0.42,0.6-0.81,1.22h13.11c-0.32-0.51-0.49-1.17-0.84-1.28c-2.1-0.67-2.9-2.44-3.71-4.19
				C91,237.2,84.32,222.77,77.63,208.34c-0.39-0.84-0.79-1.68-1.18-2.52c-0.71-1.55-1.5-3.11,0.93-3.95
				c0.18-0.06,0.18-0.62,0.34-1.22l-13.32-0.01c0.16,0.61,0.17,1.16,0.34,1.22c2.43,0.84,1.64,2.4,0.93,3.95
				c-0.39,0.84-0.79,1.68-1.17,2.52c-6.68,14.43-13.36,28.86-20.06,43.29c-0.81,1.75-1.61,3.51-3.71,4.19
				c-0.35,0.11-0.52,0.77-0.84,1.28h13.11c-0.39-0.61-0.54-1.15-0.81-1.22c-2.48-0.63-1.97-2.14-1.2-3.78
				c1.44-3.1,2.8-6.25,4.35-9.3c0.32-0.64,1.32-1.32,2.01-1.33L84.79,241.48z M58.49,235.79c4.15-9.16,8.27-18.27,12.58-27.8
				c4.31,9.54,8.44,18.64,12.58,27.81L58.49,235.79z"/>
			<path class="st0" d="M231.11,238.27c2.58,3.14,5,6.07,7.55,9.16c-0.53,0.26-0.98,0.6-1.1,0.51c-1.97-1.45-3.27-0.06-4.69,1
				c-11.7,8.79-24.66,10.2-38.15,5.55c-12.8-4.41-19.63-15.87-18.67-29.74c0.84-12.22,10.2-22.62,22.86-25.38
				c11.4-2.48,22.27-0.94,32.59,4.47c1.49,0.78,2.85,1.82,4.29-0.05c0.11-0.14,0.71,0.1,1.36,0.2c-2.15,3.58-4.16,6.93-6.32,10.52
				c-0.48-0.63-0.81-0.88-0.77-1.04c0.69-2.87-1.36-3.97-3.32-5.03c-8.48-4.57-17.46-5.76-26.75-3.32
				c-10.89,2.85-17.29,11.53-17.18,22.67c0.11,10.6,7.38,19.88,18.03,22.5c10.19,2.5,19.54,0.58,27.71-6.22
				c1.5-1.25,3.07-2.47,1.94-4.8C230.45,239.18,230.69,238.94,231.11,238.27z"/>
			<path class="st0" d="M361.57,238.27c2.58,3.14,5,6.07,7.55,9.16c-0.53,0.26-0.98,0.6-1.1,0.51c-1.97-1.45-3.27-0.06-4.69,1
				c-11.7,8.79-24.66,10.2-38.15,5.55c-12.8-4.41-19.63-15.87-18.67-29.74c0.84-12.22,10.2-22.62,22.86-25.38
				c11.4-2.48,22.27-0.94,32.59,4.47c1.49,0.78,2.85,1.82,4.29-0.05c0.11-0.14,0.71,0.1,1.36,0.2c-2.15,3.58-4.16,6.93-6.32,10.52
				c-0.48-0.63-0.81-0.88-0.77-1.04c0.69-2.87-1.36-3.97-3.32-5.03c-8.48-4.57-17.46-5.76-26.75-3.32
				c-10.89,2.85-17.29,11.53-17.18,22.67c0.11,10.6,7.38,19.88,18.03,22.5c10.19,2.5,19.54,0.58,27.71-6.22
				c1.5-1.25,3.07-2.47,1.94-4.8C360.91,239.18,361.15,238.94,361.57,238.27z"/>
			<path class="st0" d="M287.13,241.48c0.69,0.01,1.69,0.69,2.01,1.33c1.55,3.05,2.91,6.2,4.35,9.3c0.77,1.64,1.28,3.15-1.21,3.78
				c-0.27,0.07-0.42,0.6-0.81,1.22h13.11c-0.32-0.51-0.49-1.17-0.84-1.28c-2.1-0.67-2.9-2.44-3.71-4.19
				c-6.69-14.43-13.37-28.86-20.05-43.29c-0.39-0.84-0.79-1.68-1.18-2.52c-0.71-1.55-1.5-3.11,0.93-3.95
				c0.18-0.06,0.18-0.62,0.34-1.22l-13.32-0.01c0.16,0.61,0.17,1.16,0.34,1.22c2.43,0.84,1.64,2.4,0.93,3.95
				c-0.39,0.84-0.79,1.68-1.17,2.52c-6.68,14.43-13.36,28.86-20.06,43.29c-0.81,1.75-1.61,3.51-3.71,4.19
				c-0.35,0.11-0.52,0.77-0.84,1.28h13.11c-0.39-0.61-0.54-1.15-0.81-1.22c-2.48-0.63-1.97-2.14-1.2-3.78
				c1.44-3.1,2.8-6.25,4.35-9.3c0.32-0.64,1.32-1.32,2.01-1.33L287.13,241.48z M260.83,235.79c4.15-9.16,8.27-18.27,12.58-27.8
				c4.31,9.54,8.44,18.64,12.58,27.81L260.83,235.79z"/>
			<path class="st0" d="M442.65,241.48c0.69,0.01,1.69,0.69,2.01,1.33c1.55,3.05,2.91,6.2,4.35,9.3c0.77,1.64,1.28,3.15-1.21,3.78
				c-0.27,0.07-0.42,0.6-0.81,1.22h13.11c-0.32-0.51-0.49-1.17-0.84-1.28c-2.1-0.67-2.9-2.44-3.71-4.19
				c-6.69-14.43-13.37-28.86-20.05-43.29c-0.39-0.84-0.79-1.68-1.18-2.52c-0.71-1.55-1.5-3.11,0.93-3.95
				c0.18-0.06,0.18-0.62,0.34-1.22l-13.32-0.01c0.16,0.61,0.17,1.16,0.34,1.22c2.43,0.84,1.64,2.4,0.93,3.95
				c-0.39,0.84-0.79,1.68-1.17,2.52c-6.68,14.43-13.36,28.86-20.06,43.29c-0.81,1.75-1.61,3.51-3.71,4.19
				c-0.35,0.11-0.52,0.77-0.84,1.28h13.11c-0.39-0.61-0.54-1.15-0.81-1.22c-2.48-0.63-1.97-2.14-1.2-3.78
				c1.44-3.1,2.8-6.25,4.35-9.3c0.32-0.64,1.32-1.32,2.01-1.33L442.65,241.48z M416.35,235.79c4.15-9.16,8.27-18.27,12.58-27.8
				c4.31,9.54,8.44,18.64,12.58,27.81L416.35,235.79z"/>
		</g>
		<g>
			<g>
				<path class="st0" d="M449.64,204.65l-2.39-3.78h-1.3v3.78h-1.7v-9.45h3.59c0.8,0,1.47,0.13,2.02,0.38
					c0.55,0.25,0.97,0.59,1.24,1.02c0.27,0.43,0.41,0.9,0.41,1.43c0,0.62-0.2,1.18-0.59,1.68c-0.39,0.5-1,0.85-1.82,1.03l2.57,3.92
					H449.64z M445.95,199.63h1.88c0.64,0,1.12-0.14,1.44-0.44c0.32-0.29,0.49-0.68,0.49-1.17s-0.16-0.87-0.48-1.15
					c-0.32-0.28-0.8-0.41-1.45-0.41h-1.88V199.63z"/>
			</g>
			<g>
				<path class="st0" d="M447.64,207.99c-4.41,0-7.99-3.59-7.99-7.99s3.59-7.99,7.99-7.99c4.41,0,7.99,3.59,7.99,7.99
					S452.04,207.99,447.64,207.99z M447.64,193.32c-3.68,0-6.67,2.99-6.67,6.67s2.99,6.67,6.67,6.67s6.67-2.99,6.67-6.67
					S451.32,193.32,447.64,193.32z"/>
			</g>
		</g>
	</g>
</g>
</svg>
