<svg width="32" height="32" viewBox="0 0 32 32" fill="none" xmlns="http://www.w3.org/2000/svg">
  <rect width="32" height="32" rx="4" fill="white"/>
  <g transform="translate(8, 8)">
    <path d="M 2 8 Q 5 7 8 6.5 Q 11 6 14 6.5" stroke="#D4AF37" stroke-width="1.5" fill="none" stroke-linecap="round"/>
    <ellipse cx="4" cy="6" rx="2" ry="3" fill="#D4AF37" transform="rotate(-25 4 6)"/>
    <ellipse cx="7" cy="5" rx="2" ry="3.5" fill="#D4AF37" transform="rotate(-10 7 5)"/>
    <ellipse cx="10" cy="5" rx="2" ry="3.5" fill="#D4AF37" transform="rotate(10 10 5)"/>
    <ellipse cx="13" cy="6" rx="2" ry="3" fill="#D4AF37" transform="rotate(25 13 6)"/>
    <ellipse cx="5.5" cy="9" rx="1.5" ry="2.5" fill="#D4AF37" transform="rotate(-30 5.5 9)"/>
    <ellipse cx="8" cy="8" rx="1.5" ry="2.5" fill="#D4AF37" transform="rotate(0 8 8)"/>
    <ellipse cx="10.5" cy="9" rx="1.5" ry="2.5" fill="#D4AF37" transform="rotate(30 10.5 9)"/>
  </g>
</svg>
